<?xml version="1.0" encoding="utf-8"?>
<!-- Generator: Adobe Illustrator 19.0.0, SVG Export Plug-In . SVG Version: 6.00 Build 0)  -->
<svg version="1.1" id="Layer_1" xmlns="http://www.w3.org/2000/svg" xmlns:xlink="http://www.w3.org/1999/xlink" x="0px" y="0px"
	 viewBox="0 0 200 80" style="enable-background:new 0 0 200 80;" xml:space="preserve">
<style type="text/css">
	.st0{fill:#E9212D;}
</style>
<path id="XMLID_25_" class="st0" d="M20.3,15.3h-6.8v8.6c0,0.7,0,1.4,0.1,1.9s0.2,1.1,0.5,1.5c0.2,0.4,0.6,0.8,1.1,1
	c0.5,0.2,1.2,0.3,2,0.3c0.4,0,0.9,0,1.6-0.1c0.7-0.1,1.2-0.3,1.5-0.6v6.6c-0.9,0.3-1.7,0.5-2.7,0.6c-0.9,0.1-1.8,0.2-2.7,0.2
	c-1.3,0-2.5-0.1-3.6-0.4c-1.1-0.3-2.1-0.7-2.9-1.4c-0.8-0.6-1.5-1.4-1.9-2.4c-0.5-1-0.7-2.2-0.7-3.6V15.3H0.9V8.9h4.9V1.3h7.7v7.6
	h6.8V15.3z"/>
<path id="XMLID_23_" class="st0" d="M34.1,0.7v12.6h0.1c0.2-0.5,0.5-1,0.9-1.5c0.4-0.5,0.9-0.9,1.5-1.3c0.6-0.4,1.3-0.7,2.1-1
	c0.8-0.2,1.6-0.4,2.6-0.4c2,0,3.5,0.3,4.7,0.9c1.2,0.6,2.1,1.5,2.8,2.6c0.7,1.1,1.1,2.4,1.4,3.9c0.2,1.5,0.4,3.1,0.4,4.8v14.2h-7.7
	V23c0-0.7,0-1.5-0.1-2.3c-0.1-0.8-0.2-1.5-0.5-2.2c-0.3-0.7-0.7-1.2-1.2-1.6c-0.5-0.4-1.3-0.6-2.3-0.6c-1,0-1.8,0.2-2.4,0.6
	c-0.6,0.4-1.1,0.9-1.4,1.5c-0.3,0.6-0.5,1.3-0.6,2.1c-0.1,0.8-0.2,1.6-0.2,2.4v12.8h-7.7V0.7H34.1z"/>
<path id="XMLID_20_" class="st0" d="M79.2,32.9c-0.9,0.8-2,1.6-3.2,2.1c-1.9,0.9-3.9,1.4-6,1.4c-2,0-3.8-0.3-5.6-1
	c-1.7-0.7-3.3-1.6-4.5-2.8c-1.3-1.2-2.3-2.7-3-4.4c-0.7-1.7-1.1-3.6-1.1-5.7c0-2.1,0.4-4,1.1-5.7c0.7-1.7,1.8-3.2,3-4.4
	c1.3-1.2,2.8-2.2,4.5-2.8c1.7-0.7,3.6-1,5.6-1c1.8,0,3.5,0.3,5,1c1.5,0.7,2.8,1.6,3.8,2.8c1,1.2,1.8,2.7,2.4,4.4
	c0.6,1.7,0.8,3.6,0.8,5.7V25H63.6c0.3,1.6,1,2.8,2.1,3.7c1.1,0.9,2.4,1.4,3.9,1.4c1.3,0,2.4-0.3,3.3-0.9c0.6-0.4,1.1-0.8,1.6-1.4
	 M74.1,19.4c0-1.4-0.4-2.6-1.3-3.6c-0.9-1-2.1-1.5-3.5-1.5c-0.9,0-1.7,0.1-2.3,0.4c-0.7,0.3-1.2,0.7-1.7,1.1c-0.5,0.5-0.8,1-1.1,1.6
	c-0.3,0.6-0.4,1.2-0.4,1.9H74.1z"/>
<path id="XMLID_18_" class="st0" d="M18.6,52.7c-0.4-0.6-0.9-1.1-1.6-1.4s-1.4-0.6-2.3-0.6c-2,0-3.5,0.6-4.6,1.8
	c-1.1,1.2-1.6,2.8-1.6,4.8c0,2,0.5,3.6,1.6,4.8c1.1,1.2,2.6,1.8,4.6,1.8c0.9,0,1.6-0.2,2.3-0.6c0.6-0.4,1.2-0.9,1.6-1.4l5.2,5.6
	c-1.2,1.3-2.7,2.2-4.3,2.7c-1.7,0.5-3.2,0.8-4.7,0.8c-2,0-3.8-0.3-5.5-1c-1.7-0.6-3.2-1.6-4.5-2.8c-1.3-1.2-2.3-2.7-3-4.4
	s-1.1-3.6-1.1-5.7c0-2.1,0.4-4,1.1-5.7c0.7-1.7,1.7-3.1,3-4.4c1.3-1.2,2.8-2.1,4.5-2.8c1.7-0.7,3.6-1,5.5-1c1.5,0,3.1,0.3,4.7,0.8
	c1.7,0.5,3.1,1.4,4.3,2.7L18.6,52.7z"/>
<path id="XMLID_16_" class="st0" d="M108.8,52.2c-1.1-1.5-2.7-2.2-4.5-2.2c-0.7,0-1.3,0.2-1.9,0.5c-0.6,0.3-0.9,0.9-0.9,1.7
	c0,0.6,0.3,1.1,1,1.4c0.6,0.3,1.5,0.6,2.5,0.8c1,0.2,2.1,0.5,3.2,0.8c1.1,0.3,2.2,0.7,3.2,1.3c1,0.6,1.8,1.4,2.5,2.3
	c0.6,1,1,2.3,1,4c0,1.7-0.4,3.1-1.1,4.2c-0.7,1.1-1.6,2-2.7,2.6c-1.1,0.7-2.4,1.1-3.8,1.4c-1.4,0.3-2.8,0.4-4.1,0.4
	c-1.8,0-3.6-0.3-5.4-0.8c-1.8-0.5-3.3-1.4-4.6-2.8l4.8-5.5c0.7,0.9,1.5,1.6,2.4,2.1c0.9,0.5,1.9,0.7,3.1,0.7c0.9,0,1.7-0.1,2.5-0.4
	c0.7-0.3,1.1-0.8,1.1-1.5c0-0.7-0.3-1.2-1-1.5c-0.6-0.3-1.5-0.6-2.5-0.9c-1-0.2-2.1-0.5-3.2-0.8c-1.1-0.3-2.2-0.7-3.2-1.2
	s-1.8-1.3-2.5-2.3c-0.6-1-1-2.3-1-4c0-1.5,0.3-2.9,0.9-4c0.6-1.1,1.4-2,2.4-2.8c1-0.7,2.1-1.3,3.4-1.6c1.3-0.3,2.6-0.5,3.9-0.5
	c1.7,0,3.4,0.3,5.1,0.8c1.7,0.5,3.1,1.4,4.3,2.7L108.8,52.2z"/>
<path id="XMLID_13_" class="st0" d="M117.4,44.2h7.3v3.5h0.1c0.3-0.5,0.7-1,1.2-1.4c0.5-0.5,1.1-0.9,1.8-1.3c0.7-0.4,1.4-0.7,2.2-1
	c0.8-0.3,1.7-0.4,2.6-0.4c1.9,0,3.6,0.3,5.2,1c1.5,0.7,2.9,1.6,4,2.8c1.1,1.2,2,2.7,2.6,4.3c0.6,1.7,0.9,3.5,0.9,5.5
	c0,1.9-0.3,3.6-0.8,5.3s-1.3,3.2-2.3,4.5c-1,1.3-2.2,2.4-3.7,3.1c-1.4,0.8-3.1,1.2-4.9,1.2c-1.7,0-3.2-0.3-4.6-0.8
	c-1.4-0.5-2.6-1.4-3.5-2.7h-0.1v11.4h-7.9V44.2z M124.7,57.5c0,2,0.6,3.6,1.7,4.9c1.1,1.2,2.7,1.9,4.7,1.9c2,0,3.6-0.6,4.7-1.9
	c1.1-1.2,1.7-2.9,1.7-4.9c0-2-0.6-3.6-1.7-4.9c-1.1-1.2-2.7-1.9-4.7-1.9c-2,0-3.6,0.6-4.7,1.9C125.2,53.8,124.7,55.5,124.7,57.5z"/>
<path id="XMLID_10_" class="st0" d="M149.3,57.6c0-2.1,0.4-4,1.1-5.7c0.7-1.7,1.7-3.1,3-4.3c1.3-1.2,2.8-2.1,4.5-2.8
	c1.7-0.6,3.6-1,5.5-1c1.9,0,3.8,0.3,5.5,1c1.7,0.6,3.2,1.6,4.5,2.8c1.3,1.2,2.3,2.7,3,4.3c0.7,1.7,1.1,3.6,1.1,5.7
	c0,2.1-0.4,4-1.1,5.7c-0.7,1.7-1.7,3.1-3,4.3c-1.3,1.2-2.8,2.1-4.5,2.8c-1.7,0.6-3.6,1-5.5,1c-1.9,0-3.8-0.3-5.5-1
	c-1.7-0.6-3.2-1.6-4.5-2.8c-1.3-1.2-2.3-2.7-3-4.3C149.7,61.6,149.3,59.7,149.3,57.6z M157.1,57.6c0,2,0.5,3.6,1.6,4.8
	c1.1,1.2,2.6,1.8,4.6,1.8c2,0,3.5-0.6,4.6-1.8c1.1-1.2,1.6-2.8,1.6-4.8c0-2-0.5-3.6-1.6-4.8c-1.1-1.2-2.6-1.8-4.6-1.8
	c-2,0-3.5,0.6-4.6,1.8C157.7,54.1,157.1,55.7,157.1,57.6z"/>
<path id="XMLID_8_" class="st0" d="M198.2,50.4h-6.9v8.7c0,0.7,0,1.4,0.1,2c0.1,0.6,0.2,1.1,0.5,1.5c0.2,0.4,0.6,0.8,1.1,1
	c0.5,0.2,1.2,0.4,2,0.4c0.4,0,1,0,1.6-0.1c0.7-0.1,1.2-0.3,1.5-0.6V70c-0.9,0.3-1.8,0.5-2.7,0.6c-0.9,0.1-1.9,0.2-2.8,0.2
	c-1.3,0-2.5-0.1-3.7-0.4c-1.1-0.3-2.1-0.7-2.9-1.4c-0.8-0.6-1.5-1.4-2-2.5c-0.5-1-0.7-2.2-0.7-3.7V50.4h-5v-6.5h5v-7.8h7.8v7.8h6.9
	V50.4z"/>
<path id="XMLID_5_" class="st0" d="M48.7,68.2c-0.9,0.8-2,1.6-3.2,2.1c-1.9,0.9-3.9,1.4-6,1.4c-2,0-3.8-0.3-5.6-1
	c-1.7-0.7-3.3-1.6-4.5-2.8c-1.3-1.2-2.3-2.7-3-4.4c-0.7-1.7-1.1-3.6-1.1-5.7c0-2.1,0.4-4,1.1-5.7c0.7-1.7,1.8-3.2,3-4.4
	c1.3-1.2,2.8-2.2,4.5-2.8c1.7-0.7,3.6-1,5.6-1c1.8,0,3.5,0.3,5,1c1.5,0.7,2.8,1.6,3.8,2.8c1,1.2,1.8,2.7,2.4,4.4
	c0.6,1.7,0.8,3.6,0.8,5.7v2.6H33.1c0.3,1.6,1,2.8,2.1,3.7c1.1,0.9,2.4,1.4,3.9,1.4c1.3,0,2.4-0.3,3.3-0.9c0.6-0.4,1.1-0.8,1.6-1.4
	 M43.6,54.7c0-1.4-0.4-2.6-1.3-3.6c-0.9-1-2.1-1.5-3.5-1.5c-0.9,0-1.7,0.1-2.3,0.4c-0.7,0.3-1.2,0.7-1.7,1.1c-0.5,0.5-0.8,1-1.1,1.6
	c-0.3,0.6-0.4,1.2-0.4,1.9H43.6z"/>
<path id="XMLID_2_" class="st0" d="M78.9,68.2c-0.9,0.8-2,1.6-3.2,2.1c-1.9,0.9-3.9,1.4-6,1.4c-2,0-3.8-0.3-5.6-1
	c-1.7-0.7-3.3-1.6-4.5-2.8c-1.3-1.2-2.3-2.7-3-4.4c-0.7-1.7-1.1-3.6-1.1-5.7c0-2.1,0.4-4,1.1-5.7c0.7-1.7,1.8-3.2,3-4.4
	c1.3-1.2,2.8-2.2,4.5-2.8c1.7-0.7,3.6-1,5.6-1c1.8,0,3.5,0.3,5,1c1.5,0.7,2.8,1.6,3.8,2.8c1,1.2,1.8,2.7,2.4,4.4
	c0.6,1.7,0.8,3.6,0.8,5.7v2.6H63.3c0.3,1.6,1,2.8,2.1,3.7c1.1,0.9,2.4,1.4,3.9,1.4c1.3,0,2.4-0.3,3.3-0.9c0.6-0.4,1.1-0.8,1.6-1.4
	 M73.8,54.7c0-1.4-0.4-2.6-1.3-3.6c-0.9-1-2.1-1.5-3.5-1.5c-0.9,0-1.7,0.1-2.3,0.4c-0.7,0.3-1.2,0.7-1.7,1.1c-0.5,0.5-0.8,1-1.1,1.6
	c-0.3,0.6-0.4,1.2-0.4,1.9H73.8z"/>
</svg>
