<svg width="56px" height="18px" viewBox="244 20 56 18" version="1.1" xmlns="http://www.w3.org/2000/svg" xmlns:xlink="http://www.w3.org/1999/xlink">
  <!-- Generator: Sketch 42 (36781) - http://www.bohemiancoding.com/sketch -->
  <desc>Created with Sketch.</desc>
  <defs></defs>
  <g id="Logo" stroke="none" stroke-width="1" fill="none" fill-rule="evenodd" transform="translate(244.000000, 20.000000)">
    <path d="M8.45157227,11.8470993 L8.45157227,17.7643281 L4.97256836,17.7643281 L4.97256836,0.970010267 L11.5594824,0.970010267 C12.8273924,0.970010267 13.9425953,1.20069914 14.9051245,1.6620838 C15.8676537,2.12346847 16.6079011,2.77900934 17.1258887,3.6287261 C17.6438763,4.47844286 17.9028662,5.44541371 17.9028662,6.52966767 C17.9028662,8.17527297 17.3365673,9.47289787 16.2039526,10.4225813 C15.0713379,11.3722647 13.5038691,11.8470993 11.501499,11.8470993 L8.45157227,11.8470993 Z M8.45157227,9.04420152 L11.5594824,9.04420152 C12.4794903,9.04420152 13.1810824,8.8288919 13.6642798,8.39826622 C14.1474772,7.96764053 14.3890723,7.3524702 14.3890723,6.55273679 C14.3890723,5.72993414 14.1455444,5.06478122 13.6584814,4.55725809 C13.1714185,4.04973496 12.4988178,3.78828758 11.6406592,3.77290809 L8.45157227,3.77290809 L8.45157227,9.04420152 Z M23.6084326,17.7643281 L20.2453955,17.7643281 L20.2453955,0.0472455534 L23.6084326,0.0472455534 L23.6084326,17.7643281 Z M33.6395605,17.7643281 C33.4849374,17.464428 33.3728373,17.091481 33.3032568,16.6454758 C32.4914852,17.5451759 31.4361979,17.9950192 30.1373633,17.9950192 C28.9081091,17.9950192 27.8895442,17.6412963 27.0816382,16.9338398 C26.2737321,16.2263833 25.8697852,15.3343864 25.8697852,14.2578221 C25.8697852,12.9351861 26.3626391,11.9201551 27.3483618,11.2126986 C28.3340845,10.5052421 29.7585291,10.1476744 31.6217383,10.1399846 L33.1640967,10.1399846 L33.1640967,9.42484196 C33.1640967,8.84811113 33.0152741,8.38673339 32.7176245,8.04069489 C32.4199749,7.69465639 31.9503141,7.52163974 31.3086279,7.52163974 C30.7442534,7.52163974 30.3016512,7.65620825 29.9808081,7.9253493 C29.659965,8.19449035 29.4995459,8.56359255 29.4995459,9.03266696 L26.1481055,9.03266696 C26.1481055,8.30983098 26.3723057,7.64083326 26.8207129,7.0256537 C27.2691201,6.41047415 27.9030656,5.92794993 28.7225684,5.57806656 C29.5420712,5.22818319 30.4620652,5.05324413 31.4825781,5.05324413 C33.0288098,5.05324413 34.2561128,5.43964799 35.1645239,6.2124673 C36.072935,6.98528661 36.5271338,8.07144672 36.5271338,9.4709802 L36.5271338,14.8806883 C36.5348649,16.064909 36.7010824,16.9607508 37.025791,17.5682406 L37.025791,17.7643281 L33.6395605,17.7643281 Z M30.8679541,15.4458817 C31.3627482,15.4458817 31.8188797,15.3363045 32.2363623,15.1171468 C32.6538449,14.8979891 32.9630866,14.6038608 33.1640967,14.234753 L33.1640967,12.0893251 L31.9116553,12.0893251 C30.2339939,12.0893251 29.3410585,12.6660473 29.2328223,13.8195089 L29.2212256,14.0155964 C29.2212256,14.4308426 29.3681154,14.7730311 29.6618994,15.0421722 C29.9556834,15.3113132 30.3576976,15.4458817 30.8679541,15.4458817 Z M42.1863135,5.28393531 L42.2906836,6.72575517 C43.187498,5.61074223 44.3896751,5.05324413 45.897251,5.05324413 C47.2270102,5.05324413 48.2165837,5.44157039 48.866001,6.21823458 C49.5154183,6.99489876 49.8478531,8.15603275 49.8633154,9.70167137 L49.8633154,17.7643281 L46.511875,17.7643281 L46.511875,9.78241329 C46.511875,9.0749568 46.3572542,8.56167406 46.0480078,8.24254967 C45.7387615,7.92342528 45.2246471,7.76386547 44.5056494,7.76386547 C43.5624481,7.76386547 42.8550577,8.16372619 42.383457,8.9634596 L42.383457,17.7643281 L39.0320166,17.7643281 L39.0320166,5.28393531 L42.1863135,5.28393531 Z M55.9399756,17.7643281 L52.5769385,17.7643281 L52.5769385,0.0472455534 L55.9399756,0.0472455534 L55.9399756,17.7643281 Z" id="Planl" fill="#FFFFFF"></path>
    <rect id="Rectangle" fill="#FFFFFF" transform="translate(3.016250, 10.078381) rotate(90.000000) translate(-3.016250, -10.078381) " x="1.59125" y="7.11296884" width="2.85" height="5.93082478"></rect>
  </g>
</svg>
